# xmcd CD database file
#
# Track frame offsets:
#	150
#	13215
#	25857
#	38956
#	52656
#	66229
#	79187
#	92956
#	106255
#	117813
#	131423
#	144032
#	156644
#	169125
#	182600
#	195021
#	207939
#	220437
#	232683
#	245818
#	258147
#	270188
#	282987
#	295226
#	307694
#	317842
#
# Disc length: 4415 seconds
#
# Revision: 0
# Processed by: cddbd v1.5.1PL0 Copyright (c) Steve Scherf et al.
# Submitted via: CDex 1.51
#
DISCID=63113d1a
DTITLE=Memphis Minnie - Queen of the Delta Blues, Volume 2, Disc A
DYEAR=2004
DGENRE=Blues
TTITLE0=My Baby Don't Want Me No More, Take 1
TTITLE1=My Baby Don't Want Me No More, Take 2
TTITLE2=Wants Cake When I'm Hungry
TTITLE3=Down in the Alley, Take 1
TTITLE4=Down in the Alley, Take 2
TTITLE5=Blues Everywhere
TTITLE6=Keep on Sailing
TTITLE7=Please Don't Stop Him
TTITLE8=Walking and Crying Blues
TTITLE9=I'm Going Don't You Know
TTITLE10=Running and Dodging Blues, Take 1
TTITLE11=Running and Dodging Blues, Take 2
TTITLE12=New Caught Me Wrong Again
TTITLE13=Stop Lying on Me
TTITLE14=I Hate to See the Sun Go Down
TTITLE15=As Long as I Can See You Smile
TTITLE16=Has Anyone Seen My Man?
TTITLE17=Good Biscuits
TTITLE18=I've Been Treated Wrong
TTITLE19=Keep on Walking
TTITLE20=Keep on Eatin'
TTITLE21=I'd Rather See Him Dead
TTITLE22=Little Son Joe - Diggin' My Potatoes
TTITLE23=Little Son Joe - ABC Blues
TTITLE24=Little Son Joe - Bone Yard Blues
TTITLE25=Little Son Joe/ My Black Buffalo
EXTD=YEAR: 2004
EXTT0=
EXTT1=
EXTT2=
EXTT3=
EXTT4=
EXTT5=
EXTT6=
EXTT7=
EXTT8=
EXTT9=
EXTT10=
EXTT11=
EXTT12=
EXTT13=
EXTT14=
EXTT15=
EXTT16=
EXTT17=
EXTT18=
EXTT19=
EXTT20=
EXTT21=
EXTT22=
EXTT23=
EXTT24=
EXTT25=
PLAYORDER=
